<?xml version="1.0" encoding="UTF-8"?><svg xmlns="http://www.w3.org/2000/svg" xmlns:xlink="http://www.w3.org/1999/xlink" contentScriptType="text/ecmascript" width="375" zoomAndPan="magnify" contentStyleType="text/css" viewBox="0 0 375 374.999991" height="374.999991" preserveAspectRatio="xMidYMid meet" version="1.0"><defs><clipPath id="clip-0"><path d="M 134.863281 142.613281 L 239.863281 142.613281 L 239.863281 262.40625 L 134.863281 262.40625 Z M 134.863281 142.613281 " clip-rule="nonzero"/></clipPath></defs><rect x="-37.5" width="450" fill="rgb(100%, 100%, 100%)" y="-37.499999" height="449.999989" fill-opacity="1"/><rect x="-37.5" width="450" fill="rgb(100%, 100%, 100%)" y="-37.499999" height="449.999989" fill-opacity="1"/><rect x="-37.5" width="450" fill="rgb(100%, 100%, 100%)" y="-37.499999" height="449.999989" fill-opacity="1"/><g clip-path="url(#clip-0)"><path fill="rgb(85.099792%, 85.099792%, 85.099792%)" d="M 239.871094 241.390625 C 239.898438 245.230469 236.640625 248.230469 233.460938 250.367188 C 222.390625 257.8125 209.046875 261.363281 195.742188 262.199219 C 182.441406 263.03125 169.109375 261.269531 156.007812 258.800781 C 149.863281 257.644531 142.871094 255.644531 140.378906 249.894531 C 139.605469 248.105469 139.375 246.132812 139.160156 244.195312 C 136.675781 221.621094 135.25 198.929688 134.886719 176.21875 C 134.78125 169.484375 134.886719 162.316406 138.554688 156.675781 C 141.179688 152.640625 145.328125 149.886719 148.542969 146.3125 L 220.703125 142.652344 C 224.335938 144.691406 228.054688 146.804688 230.699219 150.023438 C 235.308594 155.644531 235.804688 163.484375 236.09375 170.753906 C 237.011719 193.769531 239.710938 218.355469 239.871094 241.390625 " fill-opacity="1" fill-rule="nonzero"/></g><path fill="rgb(99.609375%, 96.078491%, 93.728638%)" d="M 235.050781 232.285156 C 229.601562 237.589844 217.574219 242.359375 210.089844 243.664062 C 202.605469 244.96875 158.902344 246.589844 144.144531 240.832031 C 141.671875 219.800781 140.703125 191.898438 140.738281 170.722656 C 170.558594 176.375 201.578125 175.578125 231.070312 168.410156 C 232.554688 189.5625 235.078125 211.078125 235.050781 232.285156 " fill-opacity="1" fill-rule="nonzero"/><path fill="rgb(0%, 0%, 0%)" d="M 173.328125 201.519531 C 173.058594 196.6875 173.308594 191.128906 173.703125 186.308594 C 174.859375 186.257812 176.023438 186.234375 177.179688 186.183594 C 179.820312 186.066406 182.476562 185.949219 185.097656 186.296875 C 186.730469 186.511719 188.421875 186.949219 189.632812 188.070312 C 191.074219 189.402344 191.679688 191.785156 191.648438 193.75 C 191.621094 195.378906 191.304688 197.0625 190.355469 198.386719 C 189.34375 199.800781 187.710938 200.664062 186.023438 201.074219 C 184.339844 201.488281 182.585938 201.496094 180.851562 201.5 C 178.34375 201.503906 175.835938 201.511719 173.328125 201.519531 Z M 197.71875 221.15625 C 201.3125 217.808594 204.972656 214.535156 208.242188 211.125 C 208.285156 211.136719 208.320312 211.128906 208.292969 211.09375 C 208.261719 211.058594 208.210938 211.054688 208.167969 211.054688 C 207.042969 211.011719 205.871094 210.914062 204.75 210.800781 C 202.28125 212.273438 200.394531 214.535156 198.449219 216.664062 C 197.699219 217.488281 196.925781 218.296875 196.148438 219.101562 C 195.285156 217.964844 194.410156 216.835938 193.433594 215.800781 C 192.382812 214.683594 191.21875 213.683594 190.171875 212.5625 C 189.222656 211.546875 188.378906 210.441406 187.539062 209.335938 C 186.164062 207.535156 184.792969 205.730469 183.417969 203.929688 C 185.605469 203.9375 187.769531 203.496094 189.910156 203.03125 C 190.671875 202.863281 191.4375 202.664062 192.132812 202.3125 C 192.808594 201.96875 193.40625 201.496094 193.996094 201.023438 C 194.667969 200.488281 195.339844 199.945312 195.882812 199.28125 C 197.578125 197.1875 198.289062 193.375 197.777344 190.726562 C 197.429688 188.925781 196.316406 187.324219 194.859375 186.210938 C 193.40625 185.097656 191.636719 184.453125 189.828125 184.171875 C 188.976562 184.039062 188.117188 183.984375 187.257812 183.933594 C 180.359375 183.53125 173.378906 183.703125 166.472656 183.976562 C 167.535156 195.292969 167.464844 209.359375 167.285156 220.726562 C 167.277344 221.058594 167.285156 221.425781 167.496094 221.679688 C 167.6875 221.90625 167.996094 221.984375 168.285156 222.042969 C 170.085938 222.417969 171.953125 222.46875 173.769531 222.195312 C 173.148438 216 172.839844 209.773438 172.839844 203.546875 C 174.480469 203.417969 175.289062 203.800781 176.929688 203.671875 C 179.375 206.378906 181.695312 209.394531 183.976562 212.242188 C 185.105469 213.65625 186.269531 215.039062 187.429688 216.421875 C 188.433594 217.613281 189.433594 218.804688 190.433594 219.996094 C 191.175781 220.878906 191.914062 221.757812 192.65625 222.640625 C 191.910156 223.386719 191.167969 224.132812 190.421875 224.878906 C 187.183594 228.128906 183.945312 231.378906 180.707031 234.625 C 182.195312 234.824219 183.78125 234.957031 185.273438 234.757812 C 187.800781 231.085938 190.910156 227.722656 194.214844 224.492188 C 196.714844 227.472656 199.21875 230.449219 201.722656 233.429688 C 201.980469 233.734375 202.242188 234.046875 202.585938 234.242188 C 202.914062 234.429688 203.289062 234.503906 203.65625 234.566406 C 205.699219 234.910156 207.777344 235.023438 209.84375 234.890625 C 205.449219 230.945312 201.375 225.890625 197.71875 221.15625 " fill-opacity="1" fill-rule="nonzero"/><path fill="rgb(45.098877%, 45.098877%, 45.098877%)" d="M 226.910156 145.484375 C 225.1875 148.875 221.058594 150.148438 217.335938 150.890625 C 201.199219 154.117188 184.582031 153.671875 168.132812 153.164062 C 162.773438 152.996094 157.347656 152.816406 152.195312 151.332031 C 148.855469 150.371094 145.4375 148.648438 143.90625 145.523438 C 142.953125 143.585938 142.851562 141.359375 142.765625 139.199219 C 142.566406 134.191406 142.382812 128.902344 142.183594 123.890625 C 142.183594 123.882812 142.183594 123.875 142.183594 123.871094 C 142.183594 123.863281 142.183594 123.855469 142.183594 123.847656 C 142.164062 121.4375 144.773438 119.644531 147.101562 118.667969 C 157.554688 114.28125 168.082031 114.511719 179.105469 114.933594 C 193.054688 115.472656 207.535156 112.585938 221.085938 117.109375 C 223.621094 117.953125 226.453125 120.117188 226.652344 122.421875 L 226.667969 122.421875 C 227.582031 129.757812 228.40625 139.515625 226.910156 145.484375 " fill-opacity="1" fill-rule="nonzero"/><path fill="rgb(32.939148%, 32.939148%, 32.939148%)" d="M 218.046875 130.667969 C 217.578125 135.277344 219.054688 139.871094 219 144.503906 C 219.242188 140.648438 219.21875 138.328125 218.875 134.484375 C 218.757812 133.132812 218.675781 131.871094 218.046875 130.667969 Z M 213.203125 151.628906 C 213.742188 151.542969 214.28125 151.453125 214.820312 151.359375 C 214.386719 146.582031 213.890625 141.714844 212.710938 137.089844 C 212.609375 141.9375 212.78125 146.796875 213.203125 151.628906 Z M 197.894531 150.785156 C 198.355469 144.902344 198.386719 138.824219 197.007812 133.089844 C 196.835938 139 197.136719 144.921875 197.894531 150.785156 Z M 186.816406 149.570312 C 187.105469 144.726562 187.734375 140.445312 186.484375 135.757812 C 186.59375 140.363281 186.703125 144.964844 186.816406 149.570312 Z M 171.960938 135.128906 C 172.222656 137.75 171.4375 140.824219 171.320312 143.484375 C 171.210938 146.023438 171.175781 148.570312 171.21875 151.113281 C 171.222656 151.558594 171.035156 153.382812 172.066406 153.066406 C 172.71875 152.867188 172.414062 150.949219 172.425781 150.359375 C 172.496094 145.277344 172.464844 140.1875 171.960938 135.128906 Z M 165.003906 132.484375 C 165.105469 138.222656 165.296875 143.960938 165.582031 149.695312 C 165.835938 145.453125 166.1875 141.8125 166.441406 137.566406 C 166.550781 135.738281 166.445312 133.613281 165.003906 132.484375 Z M 207.199219 130.105469 C 207.082031 135.929688 206.964844 141.753906 206.847656 147.578125 C 206.398438 143.871094 205.945312 140.164062 205.496094 136.457031 C 205.269531 134.589844 204.917969 132.695312 204.808594 130.816406 C 204.800781 130.671875 204.777344 130.515625 204.761719 130.351562 C 198.007812 130.941406 191.074219 130.746094 184.320312 130.507812 C 182.867188 130.457031 181.417969 130.40625 179.96875 130.347656 C 179.808594 137.121094 179.644531 143.894531 179.480469 150.664062 C 179.574219 146.828125 178.949219 142.835938 178.691406 139.007812 C 178.554688 137.015625 178.421875 135.019531 178.285156 133.027344 C 178.214844 132.007812 177.960938 130.910156 178.128906 130.277344 C 171.636719 130.011719 165.140625 129.632812 158.714844 128.804688 C 158.847656 129.230469 158.839844 129.695312 158.824219 130.148438 C 158.609375 136.613281 158.398438 143.082031 158.1875 149.546875 C 158.316406 145.601562 157.617188 141.492188 157.507812 137.527344 C 157.449219 135.472656 157.421875 133.414062 157.421875 131.359375 C 157.421875 130.921875 157.222656 129.390625 157.316406 128.617188 C 155.464844 128.359375 153.621094 128.058594 151.78125 127.710938 C 151.796875 133.617188 151.808594 139.519531 151.820312 145.425781 C 151.8125 142.019531 151.015625 138.429688 150.625 135.042969 C 150.421875 133.261719 150.214844 131.484375 150.011719 129.703125 C 149.960938 129.261719 149.542969 127.695312 149.84375 127.328125 C 149.210938 127.199219 148.582031 127.0625 147.953125 126.917969 C 146.355469 126.554688 144.578125 125.953125 143.417969 124.894531 C 145.695312 125.5625 148.070312 125.867188 150.417969 126.222656 C 157.230469 127.257812 164.101562 127.863281 170.964844 128.46875 C 172.484375 128.601562 174 128.734375 175.519531 128.839844 C 184.609375 129.484375 193.734375 129.207031 202.839844 128.925781 C 210.808594 128.679688 218.710938 127.738281 226.011719 124.527344 C 220.175781 127.707031 213.792969 129.328125 207.199219 130.105469 " fill-opacity="1" fill-rule="nonzero"/></svg>